<?xml version="1.0" encoding="UTF-8" standalone="no"?>
<svg
   width="1000pt"
   height="1000pt"
   viewBox="0 0 1000 1000"
   version="1.1"
   id="svg311"
   sodipodi:docname="logo.svg"
   inkscape:version="1.1-alpha (7bd81f7, 2021-03-12)"
   xmlns:inkscape="http://www.inkscape.org/namespaces/inkscape"
   xmlns:sodipodi="http://sodipodi.sourceforge.net/DTD/sodipodi-0.dtd"
   xmlns="http://www.w3.org/2000/svg"
   xmlns:svg="http://www.w3.org/2000/svg">
  <defs
     id="defs315" />
  <sodipodi:namedview
     id="namedview313"
     pagecolor="#ffffff"
     bordercolor="#666666"
     borderopacity="1.0"
     objecttolerance="10.0"
     gridtolerance="10.0"
     guidetolerance="10.0"
     inkscape:pageshadow="2"
     inkscape:pageopacity="0.0"
     inkscape:pagecheckerboard="0"
     inkscape:document-units="pt"
     showgrid="false"
     width="1000pt"
     showguides="true"
     inkscape:guide-bbox="true"
     inkscape:zoom="0.4990016"
     inkscape:cx="552.10244"
     inkscape:cy="576.15046"
     inkscape:window-width="1920"
     inkscape:window-height="1051"
     inkscape:window-x="-9"
     inkscape:window-y="-9"
     inkscape:window-maximized="1"
     inkscape:current-layer="svg311" />
  <g
     id="g409"
     transform="matrix(2.25,0,0,2.25,-221.9125,-206.90151)">
    <g
       id="#221821ff">
      <path
         fill="#221821"
         opacity="1"
         d="m 347.56,147.61 c 2,-1.16 4.08,-2.44 6.44,-2.64 2.58,-0.16 4.9,2.41 4.27,4.99 -1.92,11.88 -6.9,23.2 -7.54,35.3 12.64,-4.73 25.7,-9.06 39.32,-9.51 4.49,-0.11 9.13,-0.72 13.53,0.47 1.96,1.37 2.36,4.34 1.11,6.3 -0.86,1.48 -1.95,2.79 -3.04,4.09 -7.75,8.88 -14.75,18.4 -21.5,28.06 7.86,0.35 15.35,2.92 22.65,5.64 2.76,1.1 5.55,2.22 8.07,3.83 3.03,1.63 2.87,7.04 -0.47,8.2 -3.08,0.87 -6.32,0.97 -9.42,1.75 -3.72,0.93 -7.27,2.43 -10.77,3.98 -9.26,4.09 -16.96,11.16 -22.89,19.28 -1.7,2.39 -3.45,4.83 -4.46,7.61 0.61,1.65 2.46,2.38 3.75,3.45 10.58,6.83 19.45,16.22 25.87,27.05 2.07,3.44 3.46,7.22 5.36,10.74 1.21,2.56 4.21,3.22 6.46,4.56 2.81,1.32 4.9,3.69 7.44,5.42 2.23,1.03 4.8,1.06 7.04,2.09 1.19,1.6 1.04,3.78 1.22,5.69 -0.06,1.97 0.15,4.25 -1.13,5.92 -1.56,1.28 -3.53,1.89 -5.35,2.69 -0.19,6.11 -0.29,12.44 -2.91,18.1 -1.55,3.9 -4.75,6.81 -6.63,10.52 -0.46,1.89 -0.38,3.85 -0.4,5.79 0.16,10.02 0.02,20.04 0.11,30.06 0.09,6.96 -0.87,13.9 -2.19,20.72 -6.51,28.13 -28.93,52.12 -56.82,59.92 -17.26,4.77 -36.27,4.79 -52.91,-2.32 -19.91,-7.64 -36.29,-23.6 -45.07,-42.96 -3.46,-8.77 -6.59,-17.88 -6.87,-27.4 -0.4,-10.99 -0.1,-22 -0.16,-33 -0.05,-3.5 0.36,-7.06 -0.3,-10.52 -2.01,-3.81 -5.36,-6.78 -6.98,-10.83 -2.77,-5.61 -2.62,-11.99 -2.92,-18.08 -1.95,-0.97 -4.38,-1.44 -5.73,-3.26 -1.17,-3.39 -0.81,-7.19 0.07,-10.61 2.38,-1.11 5.05,-1.43 7.44,-2.53 2.36,-1.54 4.21,-3.79 6.74,-5.1 2.14,-1.25 4.64,-1.91 6.55,-3.52 1.58,-2.25 2.48,-4.88 3.71,-7.32 5.37,-11.14 13.72,-20.53 23.17,-28.39 -0.66,-5.59 -2.81,-10.83 -5.47,-15.73 -10.14,-19.2 -27.78,-33.11 -46.22,-43.86 -3.61,-2.17 -7.54,-3.72 -11.17,-5.84 -2.64,-1.22 -3.35,-5.15 -1.42,-7.25 1.46,-1.09 3.21,-1.69 4.91,-2.31 14.4,-4.8 29.86,-7.05 44.96,-4.72 4.75,0.76 9.34,2.22 13.94,3.6 -3.46,-8.43 -8.65,-16.15 -15.11,-22.57 -1.32,-1.42 -2.75,-2.79 -3.66,-4.53 -0.86,-2.25 0.44,-5.4 2.98,-5.76 4.57,-0.66 9.22,-0.33 13.8,0.02 13.3,1.22 26.82,4.53 37.93,12.25 1.88,1.07 3.64,2.79 5.88,2.96 3.06,-2.72 5.43,-6.12 8.33,-9.02 7.8,-8.31 16.84,-15.38 26.46,-21.47 m -3.37,14.5 c -4.62,2.1 -8.12,5.88 -11.83,9.23 -17.07,16.03 -29.01,36.77 -37.47,58.43 -3.72,10.62 -7.67,21.31 -8.9,32.56 l 0.51,-0.6 c 3,-0.53 5.92,-1.39 8.76,-2.49 4.62,-1.8 9.5,-2.74 14.34,-3.7 1.96,-3.48 3.77,-7.04 5.21,-10.76 2.34,-1.7 4.04,-4.23 5.06,-6.91 3.48,-2.83 6.45,-6.23 9.96,-9.02 1.56,-1.37 3.38,-2.56 4.46,-4.37 0.71,-2.64 0.76,-5.4 1.08,-8.1 1.53,-14.03 4.15,-27.92 7.23,-41.69 1.09,-4.91 2.56,-9.75 3.18,-14.76 -0.55,0.71 -1.08,1.44 -1.59,2.18 m -76.27,10.29 c 0.78,0.74 1.55,1.49 2.38,2.18 2.61,5.05 5.97,9.68 8.33,14.86 1.92,3.79 3.15,7.92 5.29,11.6 2.41,3.58 6.3,5.76 9.88,8 0.82,-1.9 1.63,-3.81 2.43,-5.72 2.45,-3.59 4.65,-7.34 6.69,-11.19 1.22,-1.72 2.44,-3.45 3.64,-5.19 -2.19,-2.04 -4.53,-3.93 -7.19,-5.33 -8.18,-4.49 -17.18,-8.02 -26.6,-8.39 l -0.07,-1.07 c -1.59,0.07 -3.19,0.16 -4.78,0.25 m 118.05,13.55 c -6.58,0.12 -12.89,2.09 -19.19,3.8 -5.23,1.46 -10.3,3.46 -15.16,5.86 -1.46,0.78 -3.04,1.51 -4.09,2.83 -0.71,2.48 -0.58,5.09 -0.64,7.64 l -0.62,0.46 c -0.64,4.17 -1.15,8.36 -1.38,12.58 4.53,-1.22 9.03,-2.56 13.59,-3.67 l 0.28,-0.7 c 3.28,-0.08 6.68,0.07 9.84,-1 1.65,-1.05 2.67,-2.78 3.79,-4.34 2.37,-3.6 4.8,-7.16 7.41,-10.6 2.84,-3.86 6.13,-7.46 8.22,-11.82 0.69,-0.62 1.34,-1.26 1.97,-1.94 -1.35,0.26 -2.71,0.49 -4.02,0.9 m -161.39,17.66 -0.98,-0.07 c 1.03,0.5 2.07,1.04 3.19,1.35 5.14,4.05 10.91,7.22 16.07,11.24 10.53,8.04 20.13,17.51 27.41,28.63 2.41,3.64 4.34,7.57 6.59,11.32 1.24,-3.96 2.65,-7.91 3.17,-12.04 1.89,-5.14 3.6,-10.35 5.03,-15.65 1.63,-3.27 2.97,-6.67 3.94,-10.19 -11.49,-10.86 -27.13,-17.37 -43,-17.28 -7.19,0.01 -14.6,0.06 -21.42,2.69 m 128.23,23.13 c -13.79,4.6 -25.45,14.99 -31.88,27.99 l 0.73,-0.28 c 6.94,0.73 14,1.07 20.75,3.04 3.78,1.11 7.52,2.35 11.33,3.38 7.61,-13.56 18.84,-25.67 33.38,-31.8 1.36,-0.63 2.67,-1.39 3.95,-2.2 l -0.84,-0.02 0.86,-0.24 c -1.29,-0.43 -2.56,-1.04 -3.94,-1.03 -2.97,-0.9 -6.01,-1.57 -9.11,-1.75 -8.48,-0.55 -17.21,-0.15 -25.23,2.91 m -51.94,41.04 c 3.86,3.73 7.83,7.38 12.29,10.39 -0.22,-1.43 -0.46,-2.86 -0.7,-4.29 1.99,1.48 4.05,2.87 6.18,4.16 0.62,-2.53 1.32,-5.09 2.81,-7.27 0.4,2.39 0.73,4.79 1.03,7.2 1.95,-0.95 3.9,-1.91 5.87,-2.85 -0.39,1.61 -0.79,3.21 -1.19,4.82 4.41,-4.55 9.56,-8.28 13.91,-12.88 -7.07,-2.44 -14.63,-2.59 -22.03,-2.51 -6.16,0.17 -12.51,0.58 -18.17,3.23 m 50.34,3.35 c -3.04,2.53 -6.01,5.16 -8.53,8.22 -1.1,0.07 -1.82,1.05 -2.66,1.64 -3.77,3.42 -7.71,6.66 -11.44,10.12 3.82,3.41 7.47,7.43 12.33,9.32 2.27,2.73 4.9,5.35 8.29,6.61 3.91,0.53 7.75,-0.86 11.37,-2.17 3.69,1.03 7.66,-0.19 11.46,-0.04 3.85,-0.34 8.03,1.01 11.6,-0.98 0.42,0.03 1.27,0.08 1.69,0.1 -1.33,-5.9 -5.71,-10.34 -9.36,-14.92 -6.87,-7.55 -15.05,-14.38 -24.75,-17.9 m -64.79,2.34 c -11.9,7.01 -22.55,16.98 -28.54,29.54 0.65,2.4 4.09,1.73 6.04,2.24 1.9,-0.17 3.83,-0.24 5.71,-0.63 5.92,0.44 12.07,1.51 17.83,-0.51 -0.06,0.55 -0.17,1.66 -0.23,2.21 2.4,0 5.04,0.54 7.22,-0.78 3.56,-2.02 6.56,-4.85 9.83,-7.28 2.73,-2.2 5.7,-4.12 8.14,-6.64 -0.01,-0.28 -0.03,-0.82 -0.04,-1.09 -3.86,-3.56 -8.01,-6.8 -12.05,-10.14 -2.92,-2.7 -5.6,-5.7 -8.92,-7.92 -1.64,-1.32 -3.46,0.37 -4.99,1 m 16.02,38.55 c 1.18,0.83 2.37,1.65 3.57,2.48 2.77,2.33 5.09,5.32 8.34,7.01 4.45,0.63 9,0.5 13.48,0.16 2.06,-0.12 3.15,-2.12 4.54,-3.37 2.52,-1.81 5,-3.66 7.4,-5.62 -6.15,-5.2 -12.65,-9.97 -18.92,-15.02 -6.34,4.51 -12.43,9.38 -18.41,14.36 m 44.54,5.97 c -4.72,2.28 -9.22,5.54 -11.92,10.13 -2.2,3.74 -1.4,8.33 -0.29,12.29 2.89,9.62 10.9,17.03 20.12,20.58 -4.71,-3.84 -9.88,-7.46 -13.02,-12.8 -3.33,-5.35 -4.25,-12.62 -0.82,-18.14 3.98,-6.71 11.28,-10.53 18.55,-12.65 13.41,-4.38 27.9,-2.88 41.38,0.41 -3.14,-1.75 -6.49,-3.12 -10.02,-3.8 -14.56,-3.23 -30.35,-2.35 -43.98,3.98 m -103.12,-1.08 c -3.3,1.8 -5.32,5.37 -5.72,9.05 -0.71,5.95 -0.94,12.06 0.16,17.99 1.73,7.1 7.27,12.59 13.42,16.17 -4.33,-4.75 -8.04,-10.49 -8.37,-17.09 -0.19,-5.9 -0.61,-12.18 1.91,-17.68 2.04,-4.56 7.29,-6.07 11.73,-7.21 9.2,-1.91 18.7,-1.72 28.05,-1.25 5.53,0.19 10.82,1.94 15.95,3.89 -4.21,-3.01 -8.74,-5.83 -13.95,-6.63 -10.15,-1.78 -20.58,-1.89 -30.8,-0.62 -4.23,0.64 -8.55,1.39 -12.38,3.38 m 74.05,16.85 c -0.5,2.05 -0.97,4.11 -1.45,6.17 -0.71,2.33 -1.42,4.67 -2.12,7.01 1.53,1.11 3.05,2.22 4.6,3.31 0.78,-2.29 1.49,-4.61 2.06,-6.95 0.26,0.19 0.79,0.58 1.06,0.78 0.32,2.05 0.69,4.1 1.1,6.14 1.7,-1 3.66,-1.81 4.83,-3.49 0.09,-1.62 -0.11,-3.24 -0.23,-4.85 l -0.75,0.28 c -0.46,-2.71 -0.87,-5.44 -1.26,-8.16 -2.61,-0.15 -5.23,-0.22 -7.84,-0.24 m -4.58,14.13 c -0.48,1.32 -0.94,2.65 -1.4,3.99 1.3,0.78 2.61,1.57 3.92,2.34 -0.71,-2.16 -1.54,-4.28 -2.52,-6.33 m 12.8,6.11 c 1.54,-0.99 3.07,-2 4.61,-3.01 -0.35,-1.08 -0.7,-2.15 -1.05,-3.22 -2.02,1.52 -2.88,3.89 -3.56,6.23 m -24.46,8.85 c -6.02,3.17 -12.03,6.69 -18.82,7.93 -6.63,1.55 -13.48,1.02 -20.22,1.48 -0.41,-0.11 -1.22,-0.34 -1.63,-0.46 -3.83,-1.92 -8.1,-2.72 -12.02,-4.42 0.15,2.06 0.3,4.12 0.47,6.19 0.95,0.83 1.91,1.67 2.86,2.52 4.07,3.71 8.29,7.26 12.53,10.78 -0.34,-1.96 -0.68,-3.92 -1.01,-5.87 1.74,0.95 3.48,1.92 5.23,2.88 0.7,-2.13 1.34,-4.28 1.86,-6.45 0.31,0.2 0.93,0.61 1.23,0.82 0.3,1.93 0.63,3.85 1.01,5.77 2.23,-1.27 4.41,-2.64 6.53,-4.08 -1.31,2.92 -2.54,5.88 -3.71,8.86 5.78,-3.79 12.32,-6.64 17.13,-11.72 6.7,-2.87 12.38,-7.64 18.11,-12.05 l 1.02,0.17 c -1.37,-2.76 -3.9,-4.55 -6.35,-6.25 -1.44,1.27 -2.85,2.56 -4.22,3.9 m 28.12,1.29 -0.89,0.2 c 6.16,4.28 12.04,9.04 18.55,12.8 5.79,4.35 12.03,8.08 18.14,11.97 -0.56,-1.98 -1.12,-3.95 -1.68,-5.91 1.72,1.05 3.43,2.12 5.15,3.19 0.92,-2.31 2.01,-4.55 3.4,-6.62 0.37,2.37 0.68,4.74 0.95,7.13 5.27,-3.04 11.19,-5.61 14.59,-10.94 2.01,-1.22 4.18,-2.43 5.53,-4.4 0.29,-1.2 0.53,-2.4 0.71,-3.61 -3.53,0.84 -6.96,2.04 -10.51,2.83 -9.57,1.93 -19.71,1.83 -28.96,-1.54 -5.58,-1.57 -10.34,-4.92 -15.23,-7.9 -0.92,-0.99 -1.83,-1.97 -2.74,-2.95 -2.71,1.41 -5.2,3.26 -7.01,5.75 m -31.8,21.91 c -5.08,3.76 -10.87,6.53 -15.56,10.82 -1.28,0.02 -2.42,0.7 -3.58,1.15 3.2,3.57 7.2,6.23 10.95,9.17 8.42,6.56 17.02,12.89 25.82,18.93 -0.92,-2.68 -1.83,-5.37 -2.69,-8.07 1.75,1.05 3.49,2.11 5.23,3.18 1.15,-2.44 2.27,-4.88 3.37,-7.34 0.3,2.45 0.62,4.89 0.96,7.34 2.62,-1.04 4.99,-2.59 7.23,-4.3 -1.5,3.06 -2.97,6.13 -4.41,9.22 7.56,-4.53 14.41,-10.14 21.53,-15.32 5.23,-4.22 11.03,-7.82 15.55,-12.85 -0.53,-0.07 -1.6,-0.22 -2.13,-0.29 -2.3,-2.07 -4.82,-3.86 -7.47,-5.44 -11.03,-6.78 -21.52,-14.38 -32.03,-21.92 -7.64,5.16 -14.96,10.79 -22.77,15.72 M 379,397.09 c 4.89,2.71 9.9,5.19 14.88,7.71 0.19,-6.65 0.28,-13.31 0.01,-19.96 -5.12,3.89 -9.69,8.45 -14.89,12.25 m -129.82,-11 c 0.06,5.95 0.01,11.9 0.13,17.86 4.27,-1.98 8.4,-4.24 12.28,-6.92 -3.92,-3.89 -8.22,-7.35 -12.41,-10.94 m 16.12,20.14 c -4.25,2.48 -8.75,4.52 -12.79,7.35 -1.29,-0.61 -1.63,1.46 -1.28,2.33 0.68,4.15 2.33,8.06 3.93,11.94 1.1,2.44 2.14,5 3.93,7.05 2.5,5.96 7.04,10.73 11.6,15.2 -0.19,-1.35 -0.37,-2.7 -0.56,-4.03 1.66,1.06 3.33,2.12 5,3.19 1.18,-2.44 2.33,-4.9 3.43,-7.37 0.28,2.44 0.59,4.89 0.92,7.33 2.55,-1.12 4.94,-2.56 7.13,-4.28 -1.04,2.29 -1.98,4.64 -2.85,7.01 6.3,-3.18 12.92,-6.16 18.15,-11.01 3.21,-1.01 6.06,-2.86 8.5,-5.15 0.42,0.09 1.25,0.28 1.66,0.37 -2.45,-2.7 -5.45,-4.78 -8.45,-6.81 -9.93,-6.98 -19.6,-14.33 -29.01,-22 -1.5,-1.16 -3.02,-2.38 -4.8,-3.09 -1.65,0.22 -3.06,1.21 -4.51,1.97 m 97.36,4.43 c -9.14,7.25 -18.49,14.27 -28.11,20.88 -1.54,1.07 -2.89,2.39 -4.16,3.78 l -0.75,0.2 c 2.37,1.64 4.74,3.38 7.49,4.34 4.06,3.47 8.9,5.81 13.44,8.55 3.32,1.99 6.71,3.85 10.18,5.53 -0.88,-3.32 -1.78,-6.63 -2.63,-9.96 l 0.74,0.4 c 1.53,1.44 3.2,2.72 4.97,3.85 0.62,-2.11 1.05,-4.27 1.25,-6.45 0.31,-0.18 0.93,-0.55 1.24,-0.74 0.4,2.32 0.8,4.63 1.21,6.95 2.11,-1.06 4.21,-2.14 6.3,-3.22 -0.9,2.38 -1.8,4.76 -2.69,7.15 4.15,-4.19 8.28,-8.53 10.95,-13.86 1.74,-1.63 2.94,-3.73 4.05,-5.81 2.87,-5.67 5,-11.75 5.9,-18.06 -0.37,0.11 -1.1,0.31 -1.47,0.42 -4.2,-3.06 -8.96,-5.16 -13.41,-7.8 -1.91,-1.04 -3.8,-2.3 -5.98,-2.64 -3.14,1.74 -5.7,4.31 -8.52,6.49 M 313.03,446 c -5.41,3.68 -11.17,6.82 -16.73,10.25 -3.49,2.21 -7.55,3.57 -10.5,6.55 0.76,0.09 2.29,0.27 3.05,0.36 4.86,3.44 10.79,4.71 16.39,6.46 12.99,3.15 26.78,2 39.46,-1.96 2.7,-0.82 5.23,-2.1 7.63,-3.58 1.31,-0.27 2.56,-0.74 3.83,-1.16 -3.54,-2.63 -7.54,-4.52 -11.33,-6.74 -8.09,-4.82 -16.12,-9.72 -23.91,-15 -2.71,1.47 -5.34,3.08 -7.89,4.82 z"
         id="path163" />
    </g>
    <g
       id="#f1c113ff">
      <path
         fill="#f1c113"
         opacity="1"
         d="m 344.79,140.78 c 2.79,-1.67 5.85,-3.29 9.21,-3.18 4.44,0.02 8.56,2.77 10.77,6.55 1.59,2.83 1.17,6.25 0.54,9.3 -1.47,6.67 -4.06,13.09 -4.67,19.94 10.38,-1.96 20.64,-5.13 31.29,-5.18 4.21,-0.04 8.51,-0.54 12.67,0.4 5.03,1.68 8.82,6.93 8.27,12.32 0.07,2.91 -1.42,5.51 -3.28,7.63 -5.72,6.6 -11.44,13.24 -16.21,20.57 6.85,2.64 13.93,4.76 20.47,8.16 3.61,1.87 6.32,5.57 6.51,9.71 0.38,4.93 -2.29,10.34 -7.02,12.22 -4.06,1.24 -8.4,1.18 -12.45,2.47 -11.56,3.45 -21.99,11.03 -28.4,21.3 4.66,4.18 9.8,7.84 14.08,12.45 5.22,5.56 9.67,11.85 13.45,18.46 1.64,2.74 2.47,6.01 4.64,8.4 2.96,2.06 6.19,3.73 9.14,5.83 3.45,2.46 8.35,2.47 11.11,5.96 1.67,1.84 1.89,4.44 2.13,6.8 0.22,3 0.38,6.06 -0.13,9.05 -0.66,4.45 -6.03,6.4 -6.28,11.01 -0.9,5.68 -2.16,11.47 -5.29,16.39 -1.35,2.28 -3.18,4.33 -4.07,6.87 -0.64,3.55 -0.28,7.19 -0.32,10.79 0,9.01 0.09,18.02 -0.06,27.04 -0.08,14.95 -5.09,29.51 -12.42,42.42 -9.97,16.77 -25.47,30.32 -43.7,37.4 -15.37,6.54 -32.65,7.92 -49.04,5.21 -7.22,-1.61 -14.35,-3.75 -21.15,-6.66 -22.47,-10.36 -40.35,-30.3 -48,-53.85 -2.65,-8.92 -4.27,-18.19 -4.26,-27.5 0,-9.7 -0.04,-19.39 0.08,-29.08 -0.04,-1.93 0.03,-3.9 -0.45,-5.77 -1.4,-3.11 -3.86,-5.58 -5.4,-8.61 -2.5,-4.55 -3.38,-9.73 -4.15,-14.8 -0.28,-4.01 -4.45,-5.97 -5.74,-9.53 -1.02,-3 -0.88,-6.23 -0.71,-9.35 0.24,-2.9 0.55,-6.09 2.66,-8.31 1.82,-2.17 4.73,-2.73 7.23,-3.77 3.23,-1.18 5.83,-3.53 8.82,-5.17 2,-1.26 4.49,-2.2 5.48,-4.53 2.02,-3.92 3.9,-7.93 6.38,-11.6 4.51,-7.43 10.67,-13.6 16.8,-19.68 -2.2,-7.42 -6.3,-14.13 -10.97,-20.24 -11.86,-14.77 -27.49,-26.32 -44.59,-34.33 -2.55,-1.33 -5.35,-2.62 -7,-5.09 -2.84,-4.39 -2.93,-10.79 0.71,-14.76 2.1,-2.44 5.15,-3.73 8.16,-4.65 9.2,-2.79 18.63,-5.15 28.27,-5.62 5.81,-0.33 11.63,0.14 17.45,-0.02 -2.18,-3.56 -5.35,-6.31 -8.06,-9.45 -3.5,-4.07 -3.53,-10.47 -0.33,-14.72 2.45,-3.52 6.92,-4.79 11.01,-4.87 18.5,-0.62 37.29,3.95 53.1,13.67 2.15,-2.08 4.25,-4.21 6.33,-6.38 8.06,-8.44 17.45,-15.54 27.39,-21.62 m 2.77,6.83 c -9.62,6.09 -18.66,13.16 -26.46,21.47 -2.9,2.9 -5.27,6.3 -8.33,9.02 -2.24,-0.17 -4,-1.89 -5.88,-2.96 -11.11,-7.72 -24.63,-11.03 -37.93,-12.25 -4.58,-0.35 -9.23,-0.68 -13.8,-0.02 -2.54,0.36 -3.84,3.51 -2.98,5.76 0.91,1.74 2.34,3.11 3.66,4.53 6.46,6.42 11.65,14.14 15.11,22.57 -4.6,-1.38 -9.19,-2.84 -13.94,-3.6 -15.1,-2.33 -30.56,-0.08 -44.96,4.72 -1.7,0.62 -3.45,1.22 -4.91,2.31 -1.93,2.1 -1.22,6.03 1.42,7.25 3.63,2.12 7.56,3.67 11.17,5.84 18.44,10.75 36.08,24.66 46.22,43.86 2.66,4.9 4.81,10.14 5.47,15.73 -9.45,7.86 -17.8,17.25 -23.17,28.39 -1.23,2.44 -2.13,5.07 -3.71,7.32 -1.91,1.61 -4.41,2.27 -6.55,3.52 -2.53,1.31 -4.38,3.56 -6.74,5.1 -2.39,1.1 -5.06,1.42 -7.44,2.53 -0.88,3.42 -1.24,7.22 -0.07,10.61 1.35,1.82 3.78,2.29 5.73,3.26 0.3,6.09 0.15,12.47 2.92,18.08 1.62,4.05 4.97,7.02 6.98,10.83 0.66,3.46 0.25,7.02 0.3,10.52 0.06,11 -0.24,22.01 0.16,33 0.28,9.52 3.41,18.63 6.87,27.4 8.78,19.36 25.16,35.32 45.07,42.96 16.64,7.11 35.65,7.09 52.91,2.32 27.89,-7.8 50.31,-31.79 56.82,-59.92 1.32,-6.82 2.28,-13.76 2.19,-20.72 -0.09,-10.02 0.05,-20.04 -0.11,-30.06 0.02,-1.94 -0.06,-3.9 0.4,-5.79 1.88,-3.71 5.08,-6.62 6.63,-10.52 2.62,-5.66 2.72,-11.99 2.91,-18.1 1.82,-0.8 3.79,-1.41 5.35,-2.69 1.28,-1.67 1.07,-3.95 1.13,-5.92 -0.18,-1.91 -0.03,-4.09 -1.22,-5.69 -2.24,-1.03 -4.81,-1.06 -7.04,-2.09 -2.54,-1.73 -4.63,-4.1 -7.44,-5.42 -2.25,-1.34 -5.25,-2 -6.46,-4.56 -1.9,-3.52 -3.29,-7.3 -5.36,-10.74 -6.42,-10.83 -15.29,-20.22 -25.87,-27.05 -1.29,-1.07 -3.14,-1.8 -3.75,-3.45 1.01,-2.78 2.76,-5.22 4.46,-7.61 5.93,-8.12 13.63,-15.19 22.89,-19.28 3.5,-1.55 7.05,-3.05 10.77,-3.98 3.1,-0.78 6.34,-0.88 9.42,-1.75 3.34,-1.16 3.5,-6.57 0.47,-8.2 -2.52,-1.61 -5.31,-2.73 -8.07,-3.83 -7.3,-2.72 -14.79,-5.29 -22.65,-5.64 6.75,-9.66 13.75,-19.18 21.5,-28.06 1.09,-1.3 2.18,-2.61 3.04,-4.09 1.25,-1.96 0.85,-4.93 -1.11,-6.3 -4.4,-1.19 -9.04,-0.58 -13.53,-0.47 -13.62,0.45 -26.68,4.78 -39.32,9.51 0.64,-12.1 5.62,-23.42 7.54,-35.3 0.63,-2.58 -1.69,-5.15 -4.27,-4.99 -2.36,0.2 -4.44,1.48 -6.44,2.64 z"
         id="path166" />
      <path
         fill="#f1c113"
         opacity="1"
         d="m 282.85,370.78 c 6.79,-1.24 12.8,-4.76 18.82,-7.93 3.14,0.89 6.32,1.67 9.55,2.18 -5.73,4.41 -11.41,9.18 -18.11,12.05 -4.03,1.35 -8.12,2.52 -12.18,3.8 1.97,-1.95 3.95,-3.89 5.94,-5.82 -4.69,1.75 -9.56,4.29 -14.72,3.19 -0.3,-0.21 -0.92,-0.62 -1.23,-0.82 -2.65,-1.89 -5.29,-3.85 -8.29,-5.17 6.74,-0.46 13.59,0.07 20.22,-1.48 z"
         id="path168" />
      <path
         fill="#f1c113"
         opacity="1"
         d="m 303.99,456.68 c 5.66,-3.55 11.33,-7.08 17.06,-10.52 4.56,2.04 8.88,4.57 12.98,7.44 -2.08,0.27 -4.16,0.54 -6.23,0.83 7.4,4.91 16.17,6.98 24.53,9.65 -2.4,1.48 -4.93,2.76 -7.63,3.58 -12.68,3.96 -26.47,5.11 -39.46,1.96 -5.6,-1.75 -11.53,-3.02 -16.39,-6.46 7.19,-0.7 14.91,-1.54 20.74,-6.24 -1.87,-0.09 -3.74,-0.17 -5.6,-0.24 z"
         id="path170" />
    </g>
    <g
       id="#04880aff">
      <path
         fill="#04880a"
         opacity="1"
         d="m 344.19,162.11 c 0.51,-0.74 1.04,-1.47 1.59,-2.18 -0.62,5.01 -2.09,9.85 -3.18,14.76 -3.08,13.77 -5.7,27.66 -7.23,41.69 -0.32,2.7 -0.37,5.46 -1.08,8.1 -1.08,1.81 -2.9,3 -4.46,4.37 -3.51,2.79 -6.48,6.19 -9.96,9.02 1.07,-14.36 4.2,-28.64 9.72,-41.97 0.15,4.14 0.34,8.27 0.67,12.39 1.87,-6.93 2.93,-14.06 5.04,-20.93 2.09,-7.96 5.27,-15.57 7.67,-23.43 0.3,-0.45 0.91,-1.36 1.22,-1.82 z"
         id="path173" />
      <path
         fill="#04880a"
         opacity="1"
         d="m 270.3,174.58 c 6.08,4.42 11.28,9.92 15.44,16.17 0.21,-1.31 0.43,-2.61 0.65,-3.91 4.73,4.52 7.32,10.58 9.84,16.48 -0.8,1.91 -1.61,3.82 -2.43,5.72 -3.58,-2.24 -7.47,-4.42 -9.88,-8 -2.14,-3.68 -3.37,-7.81 -5.29,-11.6 -2.36,-5.18 -5.72,-9.81 -8.33,-14.86 z"
         id="path175" />
    </g>
    <g
       id="#92c805ff">
      <path
         fill="#92c805"
         opacity="1"
         d="m 332.36,171.34 c 3.71,-3.35 7.21,-7.13 11.83,-9.23 -0.31,0.46 -0.92,1.37 -1.22,1.82 -7.52,8.07 -13.88,17.16 -19.34,26.73 -2.61,4.71 -4.85,9.61 -7.41,14.34 0.13,-2.69 0.28,-5.37 0.42,-8.06 -7.03,9.82 -11.68,21.16 -14.9,32.75 2.12,-2.5 4.38,-4.87 6.82,-7.05 -3.56,9.26 -8.86,17.8 -11.61,27.4 -3.6,3.79 -7.11,7.66 -10.45,11.69 l -0.51,0.6 c 1.23,-11.25 5.18,-21.94 8.9,-32.56 8.46,-21.66 20.4,-42.4 37.47,-58.43 z"
         id="path178" />
      <path
         fill="#92c805"
         opacity="1"
         d="m 224.58,203.61 c 6.82,-2.63 14.23,-2.68 21.42,-2.69 15.87,-0.09 31.51,6.42 43,17.28 -0.97,3.52 -2.31,6.92 -3.94,10.19 -4.89,-4.9 -9.62,-9.96 -14.07,-15.25 1.78,0.44 3.57,0.87 5.37,1.3 -2.48,-2.16 -5,-4.36 -7.98,-5.81 -4.42,-2.21 -9.35,-3.06 -14.19,-3.82 0.96,1.63 1.93,3.26 2.91,4.88 -5.58,-2.41 -11.36,-4.68 -17.49,-5.07 -5.01,-0.32 -10.03,-0.53 -15.03,-1.01 z"
         id="path180" />
    </g>
    <g
       id="#57a102ff">
      <path
         fill="#57a102"
         opacity="1"
         d="m 323.63,190.66 c 5.46,-9.57 11.82,-18.66 19.34,-26.73 -2.4,7.86 -5.58,15.47 -7.67,23.43 -2.11,6.87 -3.17,14 -5.04,20.93 -0.33,-4.12 -0.52,-8.25 -0.67,-12.39 -5.52,13.33 -8.65,27.61 -9.72,41.97 -1.02,2.68 -2.72,5.21 -5.06,6.91 -3.28,1.99 -6.67,3.78 -9.92,5.81 0.97,-1.92 1.93,-3.86 2.88,-5.79 -3.71,1.52 -7.4,3.13 -10.82,5.24 2.75,-9.6 8.05,-18.14 11.61,-27.4 -2.44,2.18 -4.7,4.55 -6.82,7.05 3.22,-11.59 7.87,-22.93 14.9,-32.75 -0.14,2.69 -0.29,5.37 -0.42,8.06 2.56,-4.73 4.8,-9.63 7.41,-14.34 z"
         id="path183" />
      <path
         fill="#57a102"
         opacity="1"
         d="m 385.97,185.95 c 1.31,-0.41 2.67,-0.64 4.02,-0.9 -0.63,0.68 -1.28,1.32 -1.97,1.94 -5.82,3.98 -10.98,8.79 -15.8,13.92 0.46,-1.73 0.92,-3.46 1.38,-5.18 -6.74,4.66 -12.32,11.12 -14.84,19.02 l -0.28,0.7 c -4.56,1.11 -9.06,2.45 -13.59,3.67 0.23,-4.22 0.74,-8.41 1.38,-12.58 l 0.62,-0.46 c 5.42,-3.9 10.44,-8.34 16.11,-11.89 0.22,0.41 0.66,1.25 0.89,1.67 7.11,-3.83 14.43,-7.28 22.08,-9.91 z"
         id="path185" />
      <path
         fill="#57a102"
         opacity="1"
         d="m 223.6,203.54 0.98,0.07 c 5,0.48 10.02,0.69 15.03,1.01 6.13,0.39 11.91,2.66 17.49,5.07 -0.98,-1.62 -1.95,-3.25 -2.91,-4.88 4.84,0.76 9.77,1.61 14.19,3.82 2.98,1.45 5.5,3.65 7.98,5.81 -1.8,-0.43 -3.59,-0.86 -5.37,-1.3 4.45,5.29 9.18,10.35 14.07,15.25 -1.43,5.3 -3.14,10.51 -5.03,15.65 -2.64,-11.55 -11.34,-20.59 -20.75,-27.24 0.53,1.98 1.08,3.96 1.64,5.94 -9.52,-8.79 -21.26,-15.58 -34.13,-17.85 -1.12,-0.31 -2.16,-0.85 -3.19,-1.35 z"
         id="path187" />
      <path
         fill="#57a102"
         opacity="1"
         d="m 387.15,225.58 c 1.38,-0.01 2.65,0.6 3.94,1.03 l -0.86,0.24 c -8.16,1.97 -16.26,4.77 -23.03,9.89 0.21,-1.28 0.42,-2.56 0.63,-3.83 -2.89,2.03 -5.82,4.11 -8.05,6.89 -2.69,3.31 -4.75,7.06 -6.99,10.66 -4.95,-0.76 -9.94,-1.25 -14.94,-1.32 2.01,1.26 4.04,2.5 6.08,3.72 -6.03,-0.13 -12.06,-0.34 -18.08,-0.05 5.53,-4.4 11.14,-8.7 17.06,-12.56 -1.47,0.07 -2.94,0.14 -4.4,0.21 4.61,-5.31 10.84,-8.71 17.18,-11.53 -0.79,1.36 -1.58,2.72 -2.36,4.08 5.68,-2.61 11.49,-5.21 17.76,-5.98 5.33,-0.66 10.7,-1.02 16.06,-1.45 z"
         id="path189" />
    </g>
    <g
       id="#57a203ff">
      <path
         fill="#57a203"
         opacity="1"
         d="m 267.92,172.4 c 1.59,-0.09 3.19,-0.18 4.78,-0.25 l 0.07,1.07 c -0.44,-0.02 -1.31,-0.05 -1.74,-0.07 4.35,1.77 8.57,3.86 12.7,6.1 3.71,2.03 8.05,2.84 11.38,5.57 2.77,2.24 5.22,4.86 7.81,7.31 -2.04,3.85 -4.24,7.6 -6.69,11.19 -2.52,-5.9 -5.11,-11.96 -9.84,-16.48 -0.22,1.3 -0.44,2.6 -0.65,3.91 -4.16,-6.25 -9.36,-11.75 -15.44,-16.17 -0.83,-0.69 -1.6,-1.44 -2.38,-2.18 z"
         id="path192" />
    </g>
    <g
       id="#92c706ff">
      <path
         fill="#92c706"
         opacity="1"
         d="m 271.03,173.15 c 0.43,0.02 1.3,0.05 1.74,0.07 9.42,0.37 18.42,3.9 26.6,8.39 2.66,1.4 5,3.29 7.19,5.33 -1.2,1.74 -2.42,3.47 -3.64,5.19 -2.59,-2.45 -5.04,-5.07 -7.81,-7.31 -3.33,-2.73 -7.67,-3.54 -11.38,-5.57 -4.13,-2.24 -8.35,-4.33 -12.7,-6.1 z"
         id="path195" />
    </g>
    <g
       id="#92c806ff">
      <path
         fill="#92c806"
         opacity="1"
         d="m 366.78,189.75 c 6.3,-1.71 12.61,-3.68 19.19,-3.8 -7.65,2.63 -14.97,6.08 -22.08,9.91 -0.23,-0.42 -0.67,-1.26 -0.89,-1.67 -5.67,3.55 -10.69,7.99 -16.11,11.89 0.06,-2.55 -0.07,-5.16 0.64,-7.64 1.05,-1.32 2.63,-2.05 4.09,-2.83 4.86,-2.4 9.93,-4.4 15.16,-5.86 z"
         id="path198" />
    </g>
    <g
       id="#058809ff">
      <path
         fill="#058809"
         opacity="1"
         d="m 372.22,200.91 c 4.82,-5.13 9.98,-9.94 15.8,-13.92 -2.09,4.36 -5.38,7.96 -8.22,11.82 -2.61,3.44 -5.04,7 -7.41,10.6 -1.12,1.56 -2.14,3.29 -3.79,4.34 -3.16,1.07 -6.56,0.92 -9.84,1 2.52,-7.9 8.1,-14.36 14.84,-19.02 -0.46,1.72 -0.92,3.45 -1.38,5.18 z"
         id="path201" />
    </g>
    <g
       id="#05880aff">
      <path
         fill="#05880a"
         opacity="1"
         d="m 226.79,204.89 c 12.87,2.27 24.61,9.06 34.13,17.85 -0.56,-1.98 -1.11,-3.96 -1.64,-5.94 9.41,6.65 18.11,15.69 20.75,27.24 -0.52,4.13 -1.93,8.08 -3.17,12.04 -2.25,-3.75 -4.18,-7.68 -6.59,-11.32 -7.28,-11.12 -16.88,-20.59 -27.41,-28.63 -5.16,-4.02 -10.93,-7.19 -16.07,-11.24 z"
         id="path204" />
      <path
         fill="#05880a"
         opacity="1"
         d="m 296.95,250.04 c 3.42,-2.11 7.11,-3.72 10.82,-5.24 -0.95,1.93 -1.91,3.87 -2.88,5.79 3.25,-2.03 6.64,-3.82 9.92,-5.81 -1.44,3.72 -3.25,7.28 -5.21,10.76 -4.84,0.96 -9.72,1.9 -14.34,3.7 -2.84,1.1 -5.76,1.96 -8.76,2.49 3.34,-4.03 6.85,-7.9 10.45,-11.69 z"
         id="path206" />
    </g>
    <g
       id="#91c705ff">
      <path
         fill="#91c705"
         opacity="1"
         d="m 352.81,226.74 c 8.02,-3.06 16.75,-3.46 25.23,-2.91 3.1,0.18 6.14,0.85 9.11,1.75 -5.36,0.43 -10.73,0.79 -16.06,1.45 -6.27,0.77 -12.08,3.37 -17.76,5.98 0.78,-1.36 1.57,-2.72 2.36,-4.08 -6.34,2.82 -12.57,6.22 -17.18,11.53 1.46,-0.07 2.93,-0.14 4.4,-0.21 -5.92,3.86 -11.53,8.16 -17.06,12.56 -1.4,0.55 -2.8,1.09 -4.19,1.64 l -0.73,0.28 c 6.43,-13 18.09,-23.39 31.88,-27.99 z"
         id="path209" />
    </g>
    <g
       id="#04890aff">
      <path
         fill="#04890a"
         opacity="1"
         d="m 367.2,236.74 c 6.77,-5.12 14.87,-7.92 23.03,-9.89 l 0.84,0.02 c -1.28,0.81 -2.59,1.57 -3.95,2.2 -14.54,6.13 -25.77,18.24 -33.38,31.8 -3.81,-1.03 -7.55,-2.27 -11.33,-3.38 -6.75,-1.97 -13.81,-2.31 -20.75,-3.04 1.39,-0.55 2.79,-1.09 4.19,-1.64 6.02,-0.29 12.05,-0.08 18.08,0.05 -2.04,-1.22 -4.07,-2.46 -6.08,-3.72 5,0.07 9.99,0.56 14.94,1.32 2.24,-3.6 4.3,-7.35 6.99,-10.66 2.23,-2.78 5.16,-4.86 8.05,-6.89 -0.21,1.27 -0.42,2.55 -0.63,3.83 z"
         id="path212" />
    </g>
    <g
       id="#f6e50eff">
      <path
         fill="#f6e50e"
         opacity="1"
         d="m 300.87,267.78 c 5.66,-2.65 12.01,-3.06 18.17,-3.23 7.4,-0.08 14.96,0.07 22.03,2.51 -4.35,4.6 -9.5,8.33 -13.91,12.88 0.4,-1.61 0.8,-3.21 1.19,-4.82 -1.97,0.94 -3.92,1.9 -5.87,2.85 -0.3,-2.41 -0.63,-4.81 -1.03,-7.2 -1.49,2.18 -2.19,4.74 -2.81,7.27 -2.13,-1.29 -4.19,-2.68 -6.18,-4.16 0.24,1.43 0.48,2.86 0.7,4.29 -4.46,-3.01 -8.43,-6.66 -12.29,-10.39 z"
         id="path215" />
    </g>
    <g
       id="#f5e50fff">
      <path
         fill="#f5e50f"
         opacity="1"
         d="m 351.21,271.13 c 9.7,3.52 17.88,10.35 24.75,17.9 3.65,4.58 8.03,9.02 9.36,14.92 -0.42,-0.02 -1.27,-0.07 -1.69,-0.1 -4.69,-3.45 -8.93,-7.48 -13.86,-10.62 -8.37,-5.82 -17.8,-9.81 -27.09,-13.88 2.52,-3.06 5.49,-5.69 8.53,-8.22 z"
         id="path218" />
      <path
         fill="#f5e50f"
         opacity="1"
         d="m 243.86,316.91 c 3.83,-1.99 8.15,-2.74 12.38,-3.38 10.22,-1.27 20.65,-1.16 30.8,0.62 5.21,0.8 9.74,3.62 13.95,6.63 -5.13,-1.95 -10.42,-3.7 -15.95,-3.89 -9.35,-0.47 -18.85,-0.66 -28.05,1.25 -4.44,1.14 -9.69,2.65 -11.73,7.21 -2.52,5.5 -2.1,11.78 -1.91,17.68 0.33,6.6 4.04,12.34 8.37,17.09 -6.15,-3.58 -11.69,-9.07 -13.42,-16.17 -1.1,-5.93 -0.87,-12.04 -0.16,-17.99 0.4,-3.68 2.42,-7.25 5.72,-9.05 z"
         id="path220" />
    </g>
    <g
       id="#f5e40fff">
      <path
         fill="#f5e40f"
         opacity="1"
         d="m 286.42,273.47 c 1.53,-0.63 3.35,-2.32 4.99,-1 3.32,2.22 6,5.22 8.92,7.92 -3.22,2.18 -6.62,4.07 -9.99,6 -7.79,4.56 -14.2,11.02 -20.14,17.72 -2.79,-1.6 -5.58,-3.19 -8.37,-4.78 0.7,1.97 1.39,3.94 2.09,5.92 -1.95,-0.51 -5.39,0.16 -6.04,-2.24 5.99,-12.56 16.64,-22.53 28.54,-29.54 z"
         id="path223" />
      <path
         fill="#f5e40f"
         opacity="1"
         d="m 297.99,386.05 c 7.81,-4.93 15.13,-10.56 22.77,-15.72 10.51,7.54 21,15.14 32.03,21.92 2.65,1.58 5.17,3.37 7.47,5.44 -4.47,-0.48 -8.96,-1.14 -13.17,-2.77 -7.09,-2.72 -14.26,-5.62 -20.25,-10.4 2.12,-0.31 4.24,-0.61 6.37,-0.91 -3.83,-2.24 -7.7,-4.86 -12.2,-5.41 -2.39,0.56 -4.41,2.05 -6.52,3.23 -3.35,2.02 -6.96,3.52 -10.6,4.93 1.26,0.79 2.53,1.56 3.82,2.31 -5.71,3.61 -12.21,5.61 -18.64,7.5 -2.16,0.63 -4.41,0.65 -6.64,0.7 4.69,-4.29 10.48,-7.06 15.56,-10.82 z"
         id="path225" />
      <path
         fill="#f5e40f"
         opacity="1"
         d="m 265.3,406.23 c 1.45,-0.76 2.86,-1.75 4.51,-1.97 1.78,0.71 3.3,1.93 4.8,3.09 9.41,7.67 19.08,15.02 29.01,22 3,2.03 6,4.11 8.45,6.81 -0.41,-0.09 -1.24,-0.28 -1.66,-0.37 -7.37,-1.89 -14.64,-4.34 -21.45,-7.75 -3.24,-1.56 -5.92,-4 -8.25,-6.69 2.83,0.71 5.63,1.52 8.43,2.34 -4.74,-3.21 -9.68,-6.12 -14.23,-9.6 -2.02,-1.37 -4.15,-3.18 -6.75,-2.91 -2.76,0.17 -5.44,0.89 -8.12,1.5 0.96,0.89 1.91,1.8 2.86,2.72 -3.52,-0.22 -7.01,-0.82 -10.39,-1.82 4.04,-2.83 8.54,-4.87 12.79,-7.35 z"
         id="path227" />
      <path
         fill="#f5e40f"
         opacity="1"
         d="m 313.03,446 c 2.55,-1.74 5.18,-3.35 7.89,-4.82 7.79,5.28 15.82,10.18 23.91,15 3.79,2.22 7.79,4.11 11.33,6.74 -1.27,0.42 -2.52,0.89 -3.83,1.16 -8.36,-2.67 -17.13,-4.74 -24.53,-9.65 2.07,-0.29 4.15,-0.56 6.23,-0.83 -4.1,-2.87 -8.42,-5.4 -12.98,-7.44 -5.73,3.44 -11.4,6.97 -17.06,10.52 1.86,0.07 3.73,0.15 5.6,0.24 -5.83,4.7 -13.55,5.54 -20.74,6.24 -0.76,-0.09 -2.29,-0.27 -3.05,-0.36 2.95,-2.98 7.01,-4.34 10.5,-6.55 5.56,-3.43 11.32,-6.57 16.73,-10.25 z"
         id="path229" />
    </g>
    <g
       id="#f1c114ff">
      <path
         fill="#f1c114"
         opacity="1"
         d="m 340.02,280.99 c 0.84,-0.59 1.56,-1.57 2.66,-1.64 9.29,4.07 18.72,8.06 27.09,13.88 4.93,3.14 9.17,7.17 13.86,10.62 -3.57,1.99 -7.75,0.64 -11.6,0.98 -3.8,-0.15 -7.77,1.07 -11.46,0.04 -3.22,-1.98 -6.35,-4.08 -9.65,-5.91 0.86,2.51 1.75,5.01 2.64,7.51 -4.03,-2.39 -8.07,-4.87 -12.65,-6.04 -4.86,-1.89 -8.51,-5.91 -12.33,-9.32 3.73,-3.46 7.67,-6.7 11.44,-10.12 z"
         id="path232" />
      <path
         fill="#f1c114"
         opacity="1"
         d="m 317.91,333.76 c 2.61,0.02 5.23,0.09 7.84,0.24 0.39,2.72 0.8,5.45 1.26,8.16 -1.66,0.63 -3.31,1.26 -4.95,1.92 -0.27,-0.2 -0.8,-0.59 -1.06,-0.78 -1.52,-1.13 -3.03,-2.25 -4.54,-3.37 0.48,-2.06 0.95,-4.12 1.45,-6.17 z"
         id="path234" />
      <path
         fill="#f1c114"
         opacity="1"
         d="m 379,397.09 c 5.2,-3.8 9.77,-8.36 14.89,-12.25 0.27,6.65 0.18,13.31 -0.01,19.96 -4.98,-2.52 -9.99,-5 -14.88,-7.71 z"
         id="path236" />
    </g>
    <g
       id="#f1c214ff">
      <path
         fill="#f1c214"
         opacity="1"
         d="m 300.33,280.39 c 4.04,3.34 8.19,6.58 12.05,10.14 0.01,0.27 0.03,0.81 0.04,1.09 -2.44,2.52 -5.41,4.44 -8.14,6.64 -3.27,2.43 -6.27,5.26 -9.83,7.28 -2.18,1.32 -4.82,0.78 -7.22,0.78 0.06,-0.55 0.17,-1.66 0.23,-2.21 -5.76,2.02 -11.91,0.95 -17.83,0.51 l 0.57,-0.51 c 5.94,-6.7 12.35,-13.16 20.14,-17.72 3.37,-1.93 6.77,-3.82 9.99,-6 z"
         id="path239" />
      <path
         fill="#f1c214"
         opacity="1"
         d="m 306.01,314.5 c 4.97,-1.94 9.18,-5.41 14.12,-7.36 4.76,0.32 8.86,3.1 12.93,5.34 -2.14,0.45 -4.28,0.9 -6.41,1.35 1.91,1.48 3.81,2.97 5.72,4.47 -1.39,1.25 -2.48,3.25 -4.54,3.37 -4.48,0.34 -9.03,0.47 -13.48,-0.16 -3.25,-1.69 -5.57,-4.68 -8.34,-7.01 z"
         id="path241" />
      <path
         fill="#f1c214"
         opacity="1"
         d="m 364.91,414.95 c 2.43,-1.93 5.03,-3.94 8.13,-4.61 3.25,-0.12 6.28,1.35 9.31,2.36 -2.13,0.67 -4.25,1.34 -6.37,2.03 4.76,1.5 9.87,1.64 14.59,-0.12 0.37,-0.11 1.1,-0.31 1.47,-0.42 -0.9,6.31 -3.03,12.39 -5.9,18.06 -1.11,2.08 -2.31,4.18 -4.05,5.81 -3.38,2.36 -7.07,4.22 -10.67,6.22 1.41,-2.7 2.74,-5.44 3.95,-8.24 -3.16,1.41 -6.18,3.09 -9.05,5 -0.31,0.19 -0.93,0.56 -1.24,0.74 -2.03,0.98 -4.13,1.79 -6.22,2.6 l -0.74,-0.4 c -2.87,-1.61 -5.92,-2.87 -9.01,-4.01 1.91,2.02 3.86,4 5.81,5.98 -5.88,-2.16 -11.79,-4.27 -17.79,-6.09 -2.75,-0.96 -5.12,-2.7 -7.49,-4.34 l 0.75,-0.2 c 9.49,-2.36 19.06,-5.23 27.27,-10.7 3.57,-2.29 3.93,-7.14 7.25,-9.67 z"
         id="path243" />
      <path
         fill="#f1c214"
         opacity="1"
         d="m 260.04,412.68 c 2.68,-0.61 5.36,-1.33 8.12,-1.5 2.6,-0.27 4.73,1.54 6.75,2.91 4.55,3.48 9.49,6.39 14.23,9.6 -2.8,-0.82 -5.6,-1.63 -8.43,-2.34 2.33,2.69 5.01,5.13 8.25,6.69 6.81,3.41 14.08,5.86 21.45,7.75 -2.44,2.29 -5.29,4.14 -8.5,5.15 -4.27,1.35 -8.57,2.57 -12.82,3.95 2.28,-1.93 4.53,-3.89 6.75,-5.89 -3.4,1.14 -6.72,2.6 -10.24,3.34 -1.98,0.47 -3.9,-0.45 -5.62,-1.28 -3.85,-2.01 -7.41,-4.49 -11.12,-6.71 1.33,3.15 2.73,6.29 4.18,9.4 -4.52,-3.16 -9.29,-5.92 -13.95,-8.85 -1.79,-2.05 -2.83,-4.61 -3.93,-7.05 -1.6,-3.88 -3.25,-7.79 -3.93,-11.94 -0.35,-0.87 -0.01,-2.94 1.28,-2.33 3.38,1 6.87,1.6 10.39,1.82 -0.95,-0.92 -1.9,-1.83 -2.86,-2.72 z"
         id="path245" />
    </g>
    <g
       id="#f5e40eff">
      <path
         fill="#f5e40e"
         opacity="1"
         d="m 302.44,312.02 c 5.98,-4.98 12.07,-9.85 18.41,-14.36 6.27,5.05 12.77,9.82 18.92,15.02 -2.4,1.96 -4.88,3.81 -7.4,5.62 -1.91,-1.5 -3.81,-2.99 -5.72,-4.47 2.13,-0.45 4.27,-0.9 6.41,-1.35 -4.07,-2.24 -8.17,-5.02 -12.93,-5.34 -4.94,1.95 -9.15,5.42 -14.12,7.36 -1.2,-0.83 -2.39,-1.65 -3.57,-2.48 z"
         id="path248" />
      <path
         fill="#f5e40e"
         opacity="1"
         d="m 346.98,317.99 c 13.63,-6.33 29.42,-7.21 43.98,-3.98 3.53,0.68 6.88,2.05 10.02,3.8 -13.48,-3.29 -27.97,-4.79 -41.38,-0.41 -7.27,2.12 -14.57,5.94 -18.55,12.65 -3.43,5.52 -2.51,12.79 0.82,18.14 3.14,5.34 8.31,8.96 13.02,12.8 -9.22,-3.55 -17.23,-10.96 -20.12,-20.58 -1.11,-3.96 -1.91,-8.55 0.29,-12.29 2.7,-4.59 7.2,-7.85 11.92,-10.13 z"
         id="path250" />
    </g>
    <g
       id="#ad980fff">
      <path
         fill="#ad980f"
         opacity="1"
         d="m 261.83,299.33 c 2.79,1.59 5.58,3.18 8.37,4.78 l -0.57,0.51 c -1.88,0.39 -3.81,0.46 -5.71,0.63 -0.7,-1.98 -1.39,-3.95 -2.09,-5.92 z"
         id="path253" />
    </g>
    <g
       id="#ab9413ff">
      <path
         fill="#ab9413"
         opacity="1"
         d="m 350.92,298.96 c 3.3,1.83 6.43,3.93 9.65,5.91 -3.62,1.31 -7.46,2.7 -11.37,2.17 -3.39,-1.26 -6.02,-3.88 -8.29,-6.61 4.58,1.17 8.62,3.65 12.65,6.04 -0.89,-2.5 -1.78,-5 -2.64,-7.51 z"
         id="path256" />
    </g>
    <g
       id="#a99410ff">
      <path
         fill="#a99410"
         opacity="1"
         d="m 314.34,346.94 c 0.7,-2.34 1.41,-4.68 2.12,-7.01 1.51,1.12 3.02,2.24 4.54,3.37 -0.57,2.34 -1.28,4.66 -2.06,6.95 -1.55,-1.09 -3.07,-2.2 -4.6,-3.31 z"
         id="path259" />
    </g>
    <g
       id="#a99311ff">
      <path
         fill="#a99311"
         opacity="1"
         d="m 322.06,344.08 c 1.64,-0.66 3.29,-1.29 4.95,-1.92 l 0.75,-0.28 c 0.12,1.61 0.32,3.23 0.23,4.85 -1.17,1.68 -3.13,2.49 -4.83,3.49 -0.41,-2.04 -0.78,-4.09 -1.1,-6.14 z"
         id="path262" />
    </g>
    <g
       id="#827515ff">
      <path
         fill="#827515"
         opacity="1"
         d="m 313.33,347.89 c 0.98,2.05 1.81,4.17 2.52,6.33 -1.31,-0.77 -2.62,-1.56 -3.92,-2.34 0.46,-1.34 0.92,-2.67 1.4,-3.99 z"
         id="path265" />
    </g>
    <g
       id="#756715ff">
      <path
         fill="#756715"
         opacity="1"
         d="m 326.13,354 c 0.68,-2.34 1.54,-4.71 3.56,-6.23 0.35,1.07 0.7,2.14 1.05,3.22 -1.54,1.01 -3.07,2.02 -4.61,3.01 z"
         id="path268" />
    </g>
    <g
       id="#f4e50dff">
      <path
         fill="#f4e50d"
         opacity="1"
         d="m 301.67,362.85 c 1.37,-1.34 2.78,-2.63 4.22,-3.9 2.45,1.7 4.98,3.49 6.35,6.25 l -1.02,-0.17 c -3.23,-0.51 -6.41,-1.29 -9.55,-2.18 z"
         id="path271" />
    </g>
    <g
       id="#eed911ff">
      <path
         fill="#eed911"
         opacity="1"
         d="m 329.79,364.14 c 1.81,-2.49 4.3,-4.34 7.01,-5.75 0.91,0.98 1.82,1.96 2.74,2.95 -3.18,1.16 -6.44,2.11 -9.75,2.8 z"
         id="path274" />
    </g>
    <g
       id="#f0c114ff">
      <path
         fill="#f0c114"
         opacity="1"
         d="m 339.54,361.34 c 4.89,2.98 9.65,6.33 15.23,7.9 9.25,3.37 19.39,3.47 28.96,1.54 3.55,-0.79 6.98,-1.99 10.51,-2.83 -0.18,1.21 -0.42,2.41 -0.71,3.61 -1.35,1.97 -3.52,3.18 -5.53,4.4 -2.52,1.37 -5.06,2.71 -7.55,4.14 1.45,-2.64 2.76,-5.35 3.95,-8.11 -5.08,1.8 -9.34,5.4 -14.49,6.94 -3.93,-0.2 -7.48,-2.18 -11.09,-3.56 1.71,1.89 3.41,3.78 5.1,5.69 -4,-1.26 -7.84,-2.97 -11.86,-4.14 -1.53,-0.47 -3.1,-0.03 -4.61,0.22 -6.51,-3.76 -12.39,-8.52 -18.55,-12.8 l 0.89,-0.2 c 3.31,-0.69 6.57,-1.64 9.75,-2.8 z"
         id="path277" />
    </g>
    <g
       id="#f1c014ff">
      <path
         fill="#f1c014"
         opacity="1"
         d="m 248.98,367.38 c 3.92,1.7 8.19,2.5 12.02,4.42 0.96,2.42 1.82,4.88 2.72,7.33 -3.91,-2.3 -7.77,-4.66 -11.64,-7.01 0.08,1.32 0.15,2.64 0.23,3.97 -0.95,-0.85 -1.91,-1.69 -2.86,-2.52 -0.17,-2.07 -0.32,-4.13 -0.47,-6.19 z"
         id="path280" />
    </g>
    <g
       id="#a9950fff">
      <path
         fill="#a9950f"
         opacity="1"
         d="m 252.08,372.12 c 3.87,2.35 7.73,4.71 11.64,7.01 -0.9,-2.45 -1.76,-4.91 -2.72,-7.33 0.41,0.12 1.22,0.35 1.63,0.46 3,1.32 5.64,3.28 8.29,5.17 -0.52,2.17 -1.16,4.32 -1.86,6.45 -1.75,-0.96 -3.49,-1.93 -5.23,-2.88 0.33,1.95 0.67,3.91 1.01,5.87 -4.24,-3.52 -8.46,-7.07 -12.53,-10.78 -0.08,-1.33 -0.15,-2.65 -0.23,-3.97 z"
         id="path283" />
      <path
         fill="#a9950f"
         opacity="1"
         d="m 369.91,378.93 c 5.15,-1.54 9.41,-5.14 14.49,-6.94 -1.19,2.76 -2.5,5.47 -3.95,8.11 2.49,-1.43 5.03,-2.77 7.55,-4.14 -3.4,5.33 -9.32,7.9 -14.59,10.94 -0.27,-2.39 -0.58,-4.76 -0.95,-7.13 -1.39,2.07 -2.48,4.31 -3.4,6.62 -1.72,-1.07 -3.43,-2.14 -5.15,-3.19 0.56,1.96 1.12,3.93 1.68,5.91 -6.11,-3.89 -12.35,-7.62 -18.14,-11.97 1.51,-0.25 3.08,-0.69 4.61,-0.22 4.02,1.17 7.86,2.88 11.86,4.14 -1.69,-1.91 -3.39,-3.8 -5.1,-5.69 3.61,1.38 7.16,3.36 11.09,3.56 z"
         id="path285" />
    </g>
    <g
       id="#a79510ff">
      <path
         fill="#a79510"
         opacity="1"
         d="m 272.15,378.25 c 5.16,1.1 10.03,-1.44 14.72,-3.19 -1.99,1.93 -3.97,3.87 -5.94,5.82 4.06,-1.28 8.15,-2.45 12.18,-3.8 -4.81,5.08 -11.35,7.93 -17.13,11.72 1.17,-2.98 2.4,-5.94 3.71,-8.86 -2.12,1.44 -4.3,2.81 -6.53,4.08 -0.38,-1.92 -0.71,-3.84 -1.01,-5.77 z"
         id="path288" />
    </g>
    <g
       id="#f1c213ff">
      <path
         fill="#f1c213"
         opacity="1"
         d="m 314.49,381.43 c 2.11,-1.18 4.13,-2.67 6.52,-3.23 4.5,0.55 8.37,3.17 12.2,5.41 -2.13,0.3 -4.25,0.6 -6.37,0.91 5.99,4.78 13.16,7.68 20.25,10.4 4.21,1.63 8.7,2.29 13.17,2.77 0.53,0.07 1.6,0.22 2.13,0.29 -4.52,5.03 -10.32,8.63 -15.55,12.85 -7.12,5.18 -13.97,10.79 -21.53,15.32 1.44,-3.09 2.91,-6.16 4.41,-9.22 -2.24,1.71 -4.61,3.26 -7.23,4.3 -0.34,-2.45 -0.66,-4.89 -0.96,-7.34 -1.1,2.46 -2.22,4.9 -3.37,7.34 -1.74,-1.07 -3.48,-2.13 -5.23,-3.18 0.86,2.7 1.77,5.39 2.69,8.07 -8.8,-6.04 -17.4,-12.37 -25.82,-18.93 -3.75,-2.94 -7.75,-5.6 -10.95,-9.17 1.16,-0.45 2.3,-1.13 3.58,-1.15 2.23,-0.05 4.48,-0.07 6.64,-0.7 6.43,-1.89 12.93,-3.89 18.64,-7.5 -1.29,-0.75 -2.56,-1.52 -3.82,-2.31 3.64,-1.41 7.25,-2.91 10.6,-4.93 z"
         id="path291" />
    </g>
    <g
       id="#f0c113ff">
      <path
         fill="#f0c113"
         opacity="1"
         d="m 249.18,386.09 c 4.19,3.59 8.49,7.05 12.41,10.94 -3.88,2.68 -8.01,4.94 -12.28,6.92 -0.12,-5.96 -0.07,-11.91 -0.13,-17.86 z"
         id="path294" />
    </g>
    <g
       id="#f6e40fff">
      <path
         fill="#f6e40f"
         opacity="1"
         d="m 362.66,410.66 c 2.82,-2.18 5.38,-4.75 8.52,-6.49 2.18,0.34 4.07,1.6 5.98,2.64 4.45,2.64 9.21,4.74 13.41,7.8 -4.72,1.76 -9.83,1.62 -14.59,0.12 2.12,-0.69 4.24,-1.36 6.37,-2.03 -3.03,-1.01 -6.06,-2.48 -9.31,-2.36 -3.1,0.67 -5.7,2.68 -8.13,4.61 -3.32,2.53 -3.68,7.38 -7.25,9.67 -8.21,5.47 -17.78,8.34 -27.27,10.7 1.27,-1.39 2.62,-2.71 4.16,-3.78 9.62,-6.61 18.97,-13.63 28.11,-20.88 z"
         id="path297" />
    </g>
    <g
       id="#a99510ff">
      <path
         fill="#a99510"
         opacity="1"
         d="m 268.86,434.35 c 3.71,2.22 7.27,4.7 11.12,6.71 1.72,0.83 3.64,1.75 5.62,1.28 3.52,-0.74 6.84,-2.2 10.24,-3.34 -2.22,2 -4.47,3.96 -6.75,5.89 4.25,-1.38 8.55,-2.6 12.82,-3.95 -5.23,4.85 -11.85,7.83 -18.15,11.01 0.87,-2.37 1.81,-4.72 2.85,-7.01 -2.19,1.72 -4.58,3.16 -7.13,4.28 -0.33,-2.44 -0.64,-4.89 -0.92,-7.33 -1.1,2.47 -2.25,4.93 -3.43,7.37 -1.67,-1.07 -3.34,-2.13 -5,-3.19 0.19,1.33 0.37,2.68 0.56,4.03 -4.56,-4.47 -9.1,-9.24 -11.6,-15.2 4.66,2.93 9.43,5.69 13.95,8.85 -1.45,-3.11 -2.85,-6.25 -4.18,-9.4 z"
         id="path300" />
      <path
         fill="#a99510"
         opacity="1"
         d="m 366.32,441.04 c 2.87,-1.91 5.89,-3.59 9.05,-5 -1.21,2.8 -2.54,5.54 -3.95,8.24 3.6,-2 7.29,-3.86 10.67,-6.22 -2.67,5.33 -6.8,9.67 -10.95,13.86 0.89,-2.39 1.79,-4.77 2.69,-7.15 -2.09,1.08 -4.19,2.16 -6.3,3.22 -0.41,-2.32 -0.81,-4.63 -1.21,-6.95 z"
         id="path302" />
    </g>
    <g
       id="#a9940fff">
      <path
         fill="#a9940f"
         opacity="1"
         d="m 337.13,439.86 c 6,1.82 11.91,3.93 17.79,6.09 -1.95,-1.98 -3.9,-3.96 -5.81,-5.98 3.09,1.14 6.14,2.4 9.01,4.01 0.85,3.33 1.75,6.64 2.63,9.96 -3.47,-1.68 -6.86,-3.54 -10.18,-5.53 -4.54,-2.74 -9.38,-5.08 -13.44,-8.55 z"
         id="path305" />
    </g>
    <g
       id="#a9960dff">
      <path
         fill="#a9960d"
         opacity="1"
         d="m 358.86,444.38 c 2.09,-0.81 4.19,-1.62 6.22,-2.6 -0.2,2.18 -0.63,4.34 -1.25,6.45 -1.77,-1.13 -3.44,-2.41 -4.97,-3.85 z"
         id="path308" />
    </g>
  </g>
</svg>
